<svg width="17" height="16" viewBox="0 0 17 16" fill="none" xmlns="http://www.w3.org/2000/svg">
<path opacity="0.7" d="M12.8171 3.07108C12.6339 3.07108 12.4548 3.1254 12.3025 3.22719C12.1502 3.32896 12.0314 3.47362 11.9613 3.64287C11.8912 3.81212 11.8729 3.99836 11.9086 4.17803C11.9443 4.35771 12.0325 4.52275 12.1621 4.65229C12.2917 4.78182 12.4567 4.87005 12.6364 4.90579C12.816 4.94152 13.0023 4.92318 13.1715 4.85307C13.3408 4.78297 13.4854 4.66425 13.5872 4.51193C13.689 4.35961 13.7433 4.18052 13.7433 3.99733C13.7433 3.75167 13.6458 3.51608 13.472 3.34237C13.2983 3.16867 13.0627 3.07108 12.8171 3.07108ZM16.3677 4.93902C16.3527 4.29859 16.2328 3.66496 16.0126 3.06336C15.8164 2.54863 15.5109 2.08253 15.1173 1.69714C14.735 1.3015 14.2679 0.997956 13.751 0.809485C13.151 0.582678 12.5167 0.459987 11.8754 0.446703C11.0572 0.400391 10.7948 0.400391 8.69532 0.400391C6.59582 0.400391 6.33338 0.400391 5.51519 0.446703C4.87388 0.459987 4.23955 0.582678 3.63953 0.809485C3.12368 0.999866 2.65689 1.30315 2.27332 1.69714C1.87767 2.07936 1.57413 2.54655 1.38566 3.06336C1.15885 3.66338 1.03616 4.2977 1.02288 4.93902C0.976562 5.75721 0.976562 6.01965 0.976562 8.11914C0.976562 10.2187 0.976562 10.4811 1.02288 11.2993C1.03616 11.9406 1.15885 12.575 1.38566 13.175C1.57413 13.6918 1.87767 14.159 2.27332 14.5412C2.65689 14.9352 3.12368 15.2384 3.63953 15.4288C4.23955 15.6557 4.87388 15.7783 5.51519 15.7916C6.33338 15.8379 6.59582 15.8379 8.69532 15.8379C10.7948 15.8379 11.0572 15.8379 11.8754 15.7916C12.5167 15.7783 13.151 15.6557 13.751 15.4288C14.2679 15.2404 14.735 14.9368 15.1173 14.5412C15.5127 14.1572 15.8184 13.6907 16.0126 13.175C16.2328 12.5733 16.3527 11.9398 16.3677 11.2993C16.3677 10.4811 16.414 10.2187 16.414 8.11914C16.414 6.01965 16.414 5.75721 16.3677 4.93902ZM14.9783 11.2067C14.9727 11.6967 14.884 12.1821 14.7159 12.6424C14.5926 12.9783 14.3947 13.2818 14.137 13.53C13.8866 13.7852 13.5837 13.9827 13.2493 14.1089C12.7891 14.277 12.3036 14.3657 11.8136 14.3714C11.0418 14.41 10.7562 14.4177 8.72619 14.4177C6.69616 14.4177 6.41057 14.4177 5.63869 14.3714C5.12994 14.3809 4.62337 14.3025 4.14125 14.1398C3.82153 14.0072 3.53252 13.8101 3.29219 13.5609C3.036 13.313 2.84052 13.0092 2.721 12.6732C2.53255 12.2064 2.42803 11.7099 2.41225 11.2067C2.41225 10.4348 2.36594 10.1492 2.36594 8.11914C2.36594 6.08911 2.36594 5.80352 2.41225 5.03165C2.41571 4.53074 2.50715 4.03434 2.68241 3.56508C2.8183 3.23928 3.02687 2.94886 3.29219 2.71602C3.5267 2.45063 3.81652 2.23985 4.14125 2.09852C4.61175 1.92874 5.10764 1.84 5.60782 1.83608C6.37969 1.83608 6.66528 1.78977 8.69532 1.78977C10.7253 1.78977 11.0109 1.78977 11.7828 1.83608C12.2728 1.8417 12.7582 1.93044 13.2185 2.09852C13.5692 2.2287 13.884 2.44035 14.137 2.71602C14.39 2.95312 14.5876 3.243 14.7159 3.56508C14.8875 4.0351 14.9763 4.5313 14.9783 5.03165C15.0169 5.80352 15.0246 6.08911 15.0246 8.11914C15.0246 10.1492 15.0169 10.4348 14.9783 11.2067ZM8.69532 4.15943C7.91249 4.16095 7.14768 4.39448 6.49752 4.8305C5.84736 5.26653 5.34104 5.88549 5.04253 6.60916C4.74401 7.33284 4.66668 8.12877 4.82035 8.89637C4.974 9.66397 5.35174 10.3688 5.90582 10.9218C6.4599 11.4749 7.16547 11.8513 7.93336 12.0034C8.70126 12.1556 9.49704 12.0766 10.2201 11.7767C10.9432 11.4768 11.5612 10.9693 11.9959 10.3183C12.4306 9.66724 12.6627 8.90197 12.6627 8.11914C12.6637 7.59821 12.5617 7.08222 12.3626 6.60084C12.1636 6.11945 11.8712 5.68219 11.5025 5.31419C11.1338 4.94619 10.6959 4.65472 10.2142 4.45655C9.73244 4.25837 9.21625 4.15739 8.69532 4.15943ZM8.69532 10.6895C8.18695 10.6895 7.69001 10.5388 7.26731 10.2564C6.84462 9.97388 6.51517 9.57244 6.32063 9.10277C6.12608 8.6331 6.07518 8.11629 6.17436 7.61769C6.27354 7.11909 6.51834 6.6611 6.87781 6.30164C7.23727 5.94217 7.69526 5.69737 8.19387 5.59819C8.69247 5.49901 9.20927 5.54991 9.67894 5.74446C10.1486 5.939 10.55 6.26845 10.8324 6.69114C11.1148 7.11383 11.2656 7.61078 11.2656 8.11914C11.2656 8.45669 11.1991 8.79092 11.07 9.10277C10.9408 9.41462 10.7514 9.69798 10.5128 9.93665C10.2741 10.1754 9.99079 10.3647 9.67894 10.4939C9.36709 10.623 9.03286 10.6895 8.69532 10.6895Z" fill="white"/>
</svg>
