<svg width="11" height="17" viewBox="0 0 11 17" fill="none" xmlns="http://www.w3.org/2000/svg">
<g clip-path="url(#clip0_1_248)">
<path opacity="0.7" d="M6.42605 6.38181H10.226L9.80381 8.0707H6.42605V15.6707H4.73716V8.0707H1.35938V6.38181H4.73716V4.80101C4.73716 3.29537 4.89421 2.74901 5.18808 2.19844C5.47604 1.65445 5.92089 1.2096 6.46488 0.921636C7.01546 0.62777 7.56181 0.470703 9.06746 0.470703C9.50826 0.470703 9.89502 0.512925 10.226 0.59737V2.15959H9.06746C7.94941 2.15959 7.60911 2.22546 7.26204 2.41124C7.00533 2.54804 6.81448 2.73888 6.67768 2.99559C6.4919 3.34266 6.42605 3.68297 6.42605 4.80101V6.38181Z" fill="white" stroke="white" stroke-width="0.8"/>
</g>
<defs>
<clipPath id="clip0_1_248">
<rect width="11" height="17" fill="white"/>
</clipPath>
</defs>
</svg>
