<svg width="16" height="11" viewBox="0 0 16 11" fill="none" xmlns="http://www.w3.org/2000/svg">
<g clip-path="url(#clip0_1_253)">
<path opacity="0.7" d="M15.0329 3.04979C15.0329 3.04979 14.8926 2.05643 14.4608 1.62026C13.9141 1.0462 13.3028 1.04338 13.0225 1.00961C11.015 0.863281 8.0009 0.863281 8.0009 0.863281H7.99529C7.99529 0.863281 4.98118 0.863281 2.97365 1.00961C2.69327 1.04338 2.08203 1.0462 1.53529 1.62026C1.1035 2.05643 0.966111 3.04979 0.966111 3.04979C0.966111 3.04979 0.820312 4.21761 0.820312 5.38262V6.47446C0.820312 7.63948 0.963307 8.8073 0.963307 8.8073C0.963307 8.8073 1.1035 9.80063 1.53249 10.2368C2.07923 10.8109 2.79701 10.7912 3.11665 10.8531C4.26621 10.9628 7.99809 10.9966 7.99809 10.9966C7.99809 10.9966 11.015 10.991 13.0225 10.8475C13.3028 10.8137 13.9141 10.8109 14.4608 10.2368C14.8926 9.80063 15.0329 8.8073 15.0329 8.8073C15.0329 8.8073 15.1758 7.64229 15.1758 6.47446V5.38262C15.1758 4.21761 15.0329 3.04979 15.0329 3.04979ZM6.51488 7.79987V3.75048L10.3925 5.78221L6.51488 7.79987Z" fill="white"/>
</g>
<defs>
<clipPath id="clip0_1_253">
<rect width="16" height="11" fill="white"/>
</clipPath>
</defs>
</svg>
