<svg width="22" height="22" viewBox="0 0 22 22" fill="none" xmlns="http://www.w3.org/2000/svg">
<path fill-rule="evenodd" clip-rule="evenodd" d="M1.14453 11C1.14453 16.4424 5.55639 20.8542 10.9987 20.8542C16.441 20.8542 20.8529 16.4424 20.8529 11C20.8529 5.55774 16.441 1.14587 10.9987 1.14587C5.55639 1.14587 1.14453 5.55774 1.14453 11ZM15.2848 7.57432C15.6579 7.91641 15.6831 8.49627 15.3411 8.86946L10.2995 14.3694C10.1304 14.5538 9.89356 14.661 9.64359 14.6665C9.39361 14.6719 9.15231 14.575 8.97551 14.3982L6.68385 12.1065C6.32587 11.7486 6.32587 11.1682 6.68385 10.8102C7.04183 10.4522 7.62223 10.4522 7.98022 10.8102L9.59492 12.4249L13.9896 7.63063C14.3317 7.25744 14.9116 7.23223 15.2848 7.57432Z" fill="#13B26F"/>
</svg>
