<svg width="579" height="498" viewBox="0 0 579 498" fill="none" xmlns="http://www.w3.org/2000/svg">
<mask id="path-1-inside-1_1_192" fill="white">
<path d="M578.629 7.62539C578.886 4.31855 576.411 1.42547 573.101 1.2047C437.314 -7.8535 302.985 34.4111 196.795 119.756C90.6048 205.1 20.4325 327.191 0.0675887 461.748C-0.428756 465.028 1.86401 468.068 5.14879 468.528L215.158 497.941C218.443 498.401 221.473 496.109 221.995 492.833C234.43 414.769 275.437 344.019 337.164 294.41C398.891 244.8 476.805 219.974 555.717 224.623C559.028 224.818 561.919 222.352 562.176 219.045L578.629 7.62539Z"/>
</mask>
<path d="M578.629 7.62539C578.886 4.31855 576.411 1.42547 573.101 1.2047C437.314 -7.8535 302.985 34.4111 196.795 119.756C90.6048 205.1 20.4325 327.191 0.0675887 461.748C-0.428756 465.028 1.86401 468.068 5.14879 468.528L215.158 497.941C218.443 498.401 221.473 496.109 221.995 492.833C234.43 414.769 275.437 344.019 337.164 294.41C398.891 244.8 476.805 219.974 555.717 224.623C559.028 224.818 561.919 222.352 562.176 219.045L578.629 7.62539Z" fill="white" fill-opacity="0.04" stroke="white" stroke-opacity="0.16" stroke-width="6" mask="url(#path-1-inside-1_1_192)"/>
</svg>
