<svg width="492" height="315" viewBox="0 0 492 315" fill="none" xmlns="http://www.w3.org/2000/svg">
<mask id="path-1-inside-1_1_157" fill="white">
<path d="M15.0164 314.791C12.3694 315.579 9.57961 314.073 8.84571 311.41C0.0339164 279.442 -2.22915 246.005 2.2127 213.109C6.87774 178.56 18.8319 145.397 37.283 115.818C55.734 86.2386 80.2607 60.9182 109.238 41.5347C138.215 22.1512 170.98 9.14719 205.363 3.38448C239.746 -2.37822 274.96 -0.768052 308.674 8.10829C342.387 16.9846 373.829 32.9245 400.916 54.8715C428.004 76.8185 450.117 104.271 465.792 135.411C480.717 165.061 489.48 197.409 491.572 230.503C491.747 233.259 489.601 235.593 486.841 235.711L401.316 239.376C398.557 239.495 396.233 237.353 396.023 234.599C394.532 215.041 389.229 195.946 380.396 178.397C370.812 159.358 357.291 142.573 340.73 129.154C324.169 115.735 304.945 105.99 284.332 100.563C263.719 95.1354 242.188 94.151 221.166 97.6744C200.144 101.198 180.111 109.149 162.394 121C144.677 132.851 129.681 148.332 118.4 166.417C107.119 184.503 99.8102 204.779 96.9579 225.902C94.3289 245.373 95.5415 265.153 100.509 284.128C101.209 286.8 99.71 289.583 97.063 290.371L15.0164 314.791Z"/>
</mask>
<path d="M15.0164 314.791C12.3694 315.579 9.57961 314.073 8.84571 311.41C0.0339164 279.442 -2.22915 246.005 2.2127 213.109C6.87774 178.56 18.8319 145.397 37.283 115.818C55.734 86.2386 80.2607 60.9182 109.238 41.5347C138.215 22.1512 170.98 9.14719 205.363 3.38448C239.746 -2.37822 274.96 -0.768052 308.674 8.10829C342.387 16.9846 373.829 32.9245 400.916 54.8715C428.004 76.8185 450.117 104.271 465.792 135.411C480.717 165.061 489.48 197.409 491.572 230.503C491.747 233.259 489.601 235.593 486.841 235.711L401.316 239.376C398.557 239.495 396.233 237.353 396.023 234.599C394.532 215.041 389.229 195.946 380.396 178.397C370.812 159.358 357.291 142.573 340.73 129.154C324.169 115.735 304.945 105.99 284.332 100.563C263.719 95.1354 242.188 94.151 221.166 97.6744C200.144 101.198 180.111 109.149 162.394 121C144.677 132.851 129.681 148.332 118.4 166.417C107.119 184.503 99.8102 204.779 96.9579 225.902C94.3289 245.373 95.5415 265.153 100.509 284.128C101.209 286.8 99.71 289.583 97.063 290.371L15.0164 314.791Z" fill="white" fill-opacity="0.04" stroke="white" stroke-opacity="0.2" stroke-width="4" mask="url(#path-1-inside-1_1_157)"/>
</svg>
