<svg width="485" height="358" viewBox="0 0 485 358" fill="none" xmlns="http://www.w3.org/2000/svg">
<mask id="path-1-inside-1_1_158" fill="white">
<path d="M453.12 0.558409C455.577 -0.709511 458.601 0.251969 459.818 2.73367C474.44 32.5309 482.894 64.993 484.654 98.172C486.503 133.018 480.924 167.859 468.289 200.386C455.654 232.913 436.25 262.384 411.364 286.845C386.477 311.306 356.677 330.198 323.936 342.271C291.196 354.343 256.264 359.32 221.455 356.871C186.646 354.422 152.755 344.604 122.028 328.066C91.3004 311.528 64.4385 288.649 43.2221 260.945C23.0207 234.566 8.37681 204.386 0.153452 172.23C-0.531442 169.552 1.14457 166.857 3.83612 166.227L87.263 146.689C89.9546 146.059 92.6392 147.733 93.3587 150.402C98.4682 169.358 107.241 187.149 119.197 202.762C132.169 219.701 148.593 233.689 167.38 243.801C186.167 253.912 206.888 259.915 228.171 261.412C249.454 262.91 270.812 259.867 290.829 252.486C310.847 245.104 329.067 233.553 344.283 218.597C359.499 203.642 371.363 185.623 379.088 165.736C386.813 145.848 390.224 124.546 389.094 103.241C388.052 83.6031 383.175 64.3761 374.754 46.6404C373.569 44.1431 374.524 41.1272 376.981 39.8593L453.12 0.558409Z"/>
</mask>
<path d="M453.12 0.558409C455.577 -0.709511 458.601 0.251969 459.818 2.73367C474.44 32.5309 482.894 64.993 484.654 98.172C486.503 133.018 480.924 167.859 468.289 200.386C455.654 232.913 436.25 262.384 411.364 286.845C386.477 311.306 356.677 330.198 323.936 342.271C291.196 354.343 256.264 359.32 221.455 356.871C186.646 354.422 152.755 344.604 122.028 328.066C91.3004 311.528 64.4385 288.649 43.2221 260.945C23.0207 234.566 8.37681 204.386 0.153452 172.23C-0.531442 169.552 1.14457 166.857 3.83612 166.227L87.263 146.689C89.9546 146.059 92.6392 147.733 93.3587 150.402C98.4682 169.358 107.241 187.149 119.197 202.762C132.169 219.701 148.593 233.689 167.38 243.801C186.167 253.912 206.888 259.915 228.171 261.412C249.454 262.91 270.812 259.867 290.829 252.486C310.847 245.104 329.067 233.553 344.283 218.597C359.499 203.642 371.363 185.623 379.088 165.736C386.813 145.848 390.224 124.546 389.094 103.241C388.052 83.6031 383.175 64.3761 374.754 46.6404C373.569 44.1431 374.524 41.1272 376.981 39.8593L453.12 0.558409Z" fill="white" fill-opacity="0.04" stroke="white" stroke-opacity="0.2" stroke-width="4" mask="url(#path-1-inside-1_1_158)"/>
</svg>
