<svg width="532" height="481" viewBox="0 0 532 481" fill="none" xmlns="http://www.w3.org/2000/svg">
<mask id="path-1-inside-1_1_191" fill="white">
<path d="M0 474.726C0 478.044 2.69287 480.737 6.01092 480.701C129.794 479.332 249.469 435.719 345.155 356.99C440.841 278.262 506.688 169.228 531.875 48.0266C532.55 44.7778 530.426 41.6166 527.17 40.9774L318.995 0.113435C315.739 -0.525739 312.587 1.59787 311.887 4.84136C296.726 75.059 258.292 138.172 202.729 183.889C147.166 229.605 77.8317 255.162 6.00865 256.514C2.69104 256.576 0 259.26 0 262.579V474.726Z"/>
</mask>
<path d="M0 474.726C0 478.044 2.69287 480.737 6.01092 480.701C129.794 479.332 249.469 435.719 345.155 356.99C440.841 278.262 506.688 169.228 531.875 48.0266C532.55 44.7778 530.426 41.6166 527.17 40.9774L318.995 0.113435C315.739 -0.525739 312.587 1.59787 311.887 4.84136C296.726 75.059 258.292 138.172 202.729 183.889C147.166 229.605 77.8317 255.162 6.00865 256.514C2.69104 256.576 0 259.26 0 262.579V474.726Z" fill="white" fill-opacity="0.04" stroke="white" stroke-opacity="0.16" stroke-width="6" mask="url(#path-1-inside-1_1_191)"/>
</svg>
