<svg width="937" height="937" viewBox="0 0 937 937" fill="none" xmlns="http://www.w3.org/2000/svg">
<mask id="path-1-inside-1_1_159" fill="white">
<path d="M933.06 429.377C934.323 429.27 935.434 430.21 935.534 431.473C942.972 525.287 921.984 619.188 875.278 700.929C828.192 783.335 757.188 849.497 671.667 890.655C586.146 931.813 490.141 946.026 396.363 931.413C302.585 916.799 215.457 874.048 146.514 808.819C77.5717 743.591 30.066 658.961 10.2868 566.135C-9.49245 473.309 -0.612252 376.665 35.7516 288.998C72.1155 201.331 134.248 126.776 213.923 75.2028C292.955 24.0461 385.551 -2.10402 479.633 0.132476C480.9 0.162612 481.899 1.21996 481.863 2.48718L480.55 48.2688C480.514 49.536 479.456 50.5331 478.188 50.5037C394.311 48.5594 311.768 71.8958 241.305 117.505C170.2 163.531 114.75 230.067 82.2975 308.305C49.8449 386.543 41.9199 472.792 59.5717 555.634C77.2235 638.475 119.62 714.002 181.147 772.215C242.674 830.428 320.431 868.581 404.122 881.622C487.813 894.664 573.492 881.98 649.815 845.249C726.137 808.517 789.504 749.472 831.526 675.929C873.167 603.051 891.902 519.344 885.32 435.702C885.221 434.438 886.158 433.327 887.421 433.22L933.06 429.377Z"/>
</mask>
<path d="M933.06 429.377C934.323 429.27 935.434 430.21 935.534 431.473C942.972 525.287 921.984 619.188 875.278 700.929C828.192 783.335 757.188 849.497 671.667 890.655C586.146 931.813 490.141 946.026 396.363 931.413C302.585 916.799 215.457 874.048 146.514 808.819C77.5717 743.591 30.066 658.961 10.2868 566.135C-9.49245 473.309 -0.612252 376.665 35.7516 288.998C72.1155 201.331 134.248 126.776 213.923 75.2028C292.955 24.0461 385.551 -2.10402 479.633 0.132476C480.9 0.162612 481.899 1.21996 481.863 2.48718L480.55 48.2688C480.514 49.536 479.456 50.5331 478.188 50.5037C394.311 48.5594 311.768 71.8958 241.305 117.505C170.2 163.531 114.75 230.067 82.2975 308.305C49.8449 386.543 41.9199 472.792 59.5717 555.634C77.2235 638.475 119.62 714.002 181.147 772.215C242.674 830.428 320.431 868.581 404.122 881.622C487.813 894.664 573.492 881.98 649.815 845.249C726.137 808.517 789.504 749.472 831.526 675.929C873.167 603.051 891.902 519.344 885.32 435.702C885.221 434.438 886.158 433.327 887.421 433.22L933.06 429.377Z" fill="white" fill-opacity="0.04" stroke="white" stroke-opacity="0.2" stroke-width="1.83635" mask="url(#path-1-inside-1_1_159)"/>
</svg>
