<svg width="18" height="18" viewBox="0 0 18 18" fill="none" xmlns="http://www.w3.org/2000/svg">
<path d="M9 8.25V12M15.75 9C15.75 9.88642 15.5754 10.7642 15.2362 11.5831C14.897 12.4021 14.3998 13.1462 13.773 13.773C13.1462 14.3998 12.4021 14.897 11.5831 15.2362C10.7642 15.5754 9.88642 15.75 9 15.75C8.11358 15.75 7.23583 15.5754 6.41689 15.2362C5.59794 14.897 4.85382 14.3998 4.22703 13.773C3.60023 13.1462 3.10303 12.4021 2.76381 11.5831C2.42459 10.7642 2.25 9.88642 2.25 9C2.25 7.20979 2.96116 5.4929 4.22703 4.22703C5.4929 2.96116 7.20979 2.25 9 2.25C10.7902 2.25 12.5071 2.96116 13.773 4.22703C15.0388 5.4929 15.75 7.20979 15.75 9Z" stroke="#666666" stroke-width="1.5" stroke-linecap="round" stroke-linejoin="round"/>
<path d="M9 6.37402C9.09849 6.37402 9.19602 6.35462 9.28701 6.31693C9.37801 6.27924 9.46069 6.224 9.53033 6.15435C9.59997 6.08471 9.65522 6.00203 9.69291 5.91104C9.7306 5.82004 9.75 5.72251 9.75 5.62402C9.75 5.52553 9.7306 5.42801 9.69291 5.33701C9.65522 5.24602 9.59997 5.16334 9.53033 5.09369C9.46069 5.02405 9.37801 4.9688 9.28701 4.93111C9.19602 4.89342 9.09849 4.87402 9 4.87402C8.80109 4.87402 8.61032 4.95304 8.46967 5.09369C8.32902 5.23435 8.25 5.42511 8.25 5.62402C8.25 5.82294 8.32902 6.0137 8.46967 6.15435C8.61032 6.29501 8.80109 6.37402 9 6.37402Z" fill="#666666"/>
</svg>
