<svg width="20" height="20" viewBox="0 0 20 20" fill="none" xmlns="http://www.w3.org/2000/svg">
<path d="M9.99577 1.04199C10.8702 1.04199 11.5589 1.70243 11.9986 2.59358L13.467 5.55463C13.5115 5.64627 13.6171 5.77531 13.7758 5.89336C13.9343 6.01128 14.0895 6.07633 14.1916 6.09349L16.8496 6.53877C17.8098 6.7001 18.6145 7.17073 18.8758 7.99024C19.1368 8.80907 18.7544 9.65999 18.0639 10.3517L18.0632 10.3524L15.9983 12.4344C15.9164 12.5169 15.8248 12.6723 15.7673 12.8748C15.7102 13.076 15.7051 13.2592 15.731 13.3776L15.7314 13.3792L16.3221 15.9548C16.5672 17.0267 16.4859 18.0897 15.7299 18.6455C14.9713 19.2031 13.9346 18.9559 12.9928 18.395L10.5012 16.9078C10.3965 16.8453 10.2169 16.7947 9.99994 16.7947C9.7846 16.7947 9.60119 16.8447 9.48969 16.9095L9.4881 16.9104L7.00142 18.3947C6.06073 18.9576 5.0253 19.2003 4.26661 18.6422C3.5111 18.0863 3.4258 17.0253 3.67161 15.9542L4.26227 13.3792L4.26263 13.3776C4.28853 13.2592 4.28346 13.076 4.22635 12.8748C4.16885 12.6723 4.07718 12.5169 3.99534 12.4344L1.9289 10.3508C1.2429 9.65916 0.861696 8.80899 1.12065 7.99137C1.38035 7.17137 2.18355 6.70016 3.1443 6.53871L5.80012 6.09382L5.80096 6.09367C5.89833 6.07678 6.05127 6.01246 6.20942 5.89423C6.36786 5.77577 6.47368 5.64645 6.51829 5.55463L6.52054 5.55005L7.98704 2.5928L7.98762 2.59163C8.43152 1.70123 9.12236 1.04199 9.99577 1.04199Z" fill="#E97725"/>
</svg>
