<svg width="112" height="333" viewBox="0 0 112 333" fill="none" xmlns="http://www.w3.org/2000/svg">
<path d="M47.5743 0.176354C46.8416 -0.213306 45.9317 0.0647866 45.5421 0.797493C45.1524 1.5302 45.4305 2.44006 46.1632 2.82972L47.5743 0.176354ZM109.906 75.2828L108.417 75.0815L109.906 75.2828ZM35.9356 132.127L36.5194 130.743L35.9356 132.127ZM18.4796 98.0257L17.062 97.5277L18.4796 98.0257ZM48.5162 82.7609L48.4256 84.2608L48.5162 82.7609ZM88.1817 175.125L89.6185 175.565L88.1817 175.125ZM15.8126 224.75L16.3276 223.338L15.8126 224.75ZM1.91134 199.533L3.39524 199.769L1.91134 199.533ZM66.9113 285.77L65.583 285.068L66.9113 285.77ZM3.84524 329.64L2.63622 328.747C2.31068 329.189 2.25121 329.772 2.48104 330.27C2.71087 330.767 3.1935 331.1 3.74038 331.139L3.84524 329.64ZM20.1056 310.137C20.5984 309.469 20.4565 308.529 19.7888 308.036C19.1211 307.543 18.1803 307.685 17.6875 308.353L20.1056 310.137ZM30.2926 332.996C31.1205 333.054 31.8385 332.43 31.8965 331.602C31.9544 330.774 31.3302 330.056 30.5024 329.998L30.2926 332.996ZM46.8688 1.50304C46.1632 2.82972 46.1632 2.8297 46.1634 2.82982C46.1638 2.83004 46.1643 2.83029 46.1651 2.83074C46.1668 2.83163 46.1695 2.83307 46.1732 2.83505C46.1807 2.83903 46.1922 2.8452 46.2077 2.85353C46.2388 2.87021 46.286 2.89558 46.3486 2.92952C46.474 2.99739 46.6615 3.09949 46.9068 3.23478C47.3973 3.50535 48.119 3.90859 49.0374 4.43596C50.8743 5.49081 53.4969 7.04165 56.63 9.02036C62.8998 12.9801 71.1962 18.6421 79.3258 25.4609C87.4645 32.2872 95.3812 40.2275 100.941 48.7331C106.503 57.2438 109.62 66.1837 108.417 75.0815L111.395 75.4841C112.731 65.6041 109.237 55.9327 103.456 47.0889C97.6724 38.24 89.5124 30.0825 81.2571 23.1583C72.9928 16.2266 64.5778 10.4854 58.2347 6.47942C55.0614 4.47529 52.4022 2.90272 50.5339 1.82985C49.5997 1.29335 48.8629 0.881657 48.3582 0.603268C48.1058 0.464069 47.9114 0.358186 47.7794 0.286682C47.7133 0.250931 47.6628 0.223771 47.6285 0.205338C47.6113 0.196121 47.5982 0.189089 47.5891 0.184254C47.5846 0.181836 47.5811 0.179966 47.5786 0.178649C47.5774 0.177991 47.5763 0.177419 47.5757 0.177089C47.5749 0.176651 47.5743 0.176354 46.8688 1.50304ZM108.417 75.0815C105.906 93.6473 94.9141 110.582 80.967 121.362C66.9928 132.164 50.3607 136.579 36.5194 130.743L35.3518 133.512C50.5573 139.923 68.3406 134.921 82.8049 123.74C97.2965 112.539 108.766 94.9277 111.395 75.4841L108.417 75.0815ZM36.5194 130.743C32.3901 129.002 26.8673 124.629 23.0667 118.769C19.2853 112.939 17.3284 105.836 19.8973 98.5238L17.062 97.5277C14.0923 105.981 16.4306 114.06 20.5454 120.404C24.641 126.719 30.6155 131.515 35.3518 133.512L36.5194 130.743ZM19.8973 98.5238C22.315 91.6418 27.054 87.9728 32.3776 86.0546C37.7627 84.1142 43.7352 83.9774 48.4256 84.2608L48.6068 81.261C43.7647 80.9685 37.3122 81.0822 31.3588 83.2273C25.3439 85.3946 19.8309 89.646 17.062 97.5277L19.8973 98.5238ZM48.4256 84.2608C67.5257 85.4146 79.9519 98.3968 86.2233 116.057C92.5062 133.75 92.4916 155.908 86.7449 174.685L89.6185 175.565C95.5339 156.236 95.5759 133.413 89.0553 115.051C82.5231 96.6567 69.2856 82.5102 48.6068 81.261L48.4256 84.2608ZM86.7449 174.685C81.8101 190.81 71.9304 205.871 59.3975 215.434C46.8925 224.976 31.8376 228.996 16.3276 223.338L15.2977 226.161C31.9809 232.247 48.0964 227.838 61.2206 217.824C74.3169 207.831 84.5251 192.208 89.6185 175.565L86.7449 174.685ZM16.3276 223.338C11.3836 221.535 7.71669 218.579 5.50024 214.678C3.28164 210.773 2.43726 205.781 3.39524 199.769L0.427438 199.296C-0.615357 205.84 0.267001 211.551 2.88729 216.163C5.50972 220.778 9.79388 224.154 15.2977 226.161L16.3276 223.338ZM3.39524 199.769C4.29852 194.101 7.15401 190.343 11.2113 187.911C15.3329 185.439 20.7776 184.292 26.8383 184.105L26.746 181.101C20.4217 181.296 14.4009 182.494 9.66586 185.333C4.86646 188.211 1.47408 192.728 0.427438 199.296L3.39524 199.769ZM26.8383 184.105C47.6044 183.467 61.778 199.854 68.5529 221.27C75.319 242.659 74.423 268.351 65.583 285.068L68.2396 286.473C77.5457 268.875 78.3622 242.315 71.4182 220.364C64.483 198.44 49.5239 180.401 26.746 181.101L26.8383 184.105ZM65.583 285.068C58.6854 298.111 43.275 308.901 29.3198 316.485C22.3825 320.255 15.8826 323.192 11.1164 325.186C8.73424 326.183 6.78767 326.944 5.43915 327.454C4.76494 327.709 4.2404 327.902 3.88586 328.03C3.7086 328.094 3.57385 328.142 3.48415 328.174C3.4393 328.19 3.40572 328.202 3.38372 328.209C3.37272 328.213 3.36462 328.216 3.35945 328.218C3.35686 328.219 3.35501 328.219 3.3539 328.22C3.35334 328.22 3.35307 328.22 3.35279 328.22C3.35269 328.22 3.35279 328.22 3.84524 329.64C4.3377 331.059 4.33817 331.059 4.33882 331.059C4.33928 331.059 4.34012 331.059 4.34105 331.058C4.3429 331.058 4.34551 331.057 4.34884 331.055C4.35551 331.053 4.36513 331.05 4.37765 331.045C4.40269 331.037 4.43936 331.024 4.48732 331.007C4.58325 330.973 4.72439 330.922 4.9082 330.856C5.2758 330.723 5.81411 330.525 6.50274 330.265C7.87989 329.744 9.85892 328.97 12.2765 327.959C17.1098 325.936 23.7059 322.956 30.7548 319.125C44.772 311.508 60.8946 300.362 68.2396 286.473L65.583 285.068ZM5.05427 330.532L20.1056 310.137L17.6875 308.353L2.63622 328.747L5.05427 330.532ZM3.74038 331.139L30.2926 332.996L30.5024 329.998L3.95011 328.141L3.74038 331.139Z" fill="#FFC947"/>
</svg>
